# xmcd
#
# Track frame offsets: 
#        150
#        15459
#        32632
#        51621
#        76578
#        94101
#        118214
#        144242
#        160251
#        179221
#        201791
#        216592
#
# Disc length: 3230 seconds
#
# Revision: 1
# Processed by: cddbd v1.5.2PL0 Copyright (c) Steve Scherf et al.
# Submitted via: ExactAudioCopy v1.0b3
#
DISCID=aa0c9c0c
DTITLE=Бараби Блус Бенд - Без право на обжалване
DYEAR=2003
DGENRE=Blues
TTITLE0=Биографичен Блус
TTITLE1=24 декември
TTITLE2=Пея Блус
TTITLE3=Тъжна алкохолна утрин
TTITLE4=Рокерски марш
TTITLE5=Блус момиче
TTITLE6=Черен ягуар
TTITLE7=Момиче от групата
TTITLE8=Червената шапчица
TTITLE9=Кралицата на Блуса
TTITLE10=Кукличка от порцелан
TTITLE11=Тъжен Блус
EXTD=YEAR: 2004
EXTT0=
EXTT1=
EXTT2=
EXTT3=
EXTT4=
EXTT5=
EXTT6=
EXTT7=
EXTT8=
EXTT9=
EXTT10=
EXTT11=
PLAYORDER=
